<?xml version="1.0" standalone="no"?>
<!DOCTYPE svg PUBLIC "-//W3C//DTD SVG 20010904//EN"
 "http://www.w3.org/TR/2001/REC-SVG-20010904/DTD/svg10.dtd">
<svg version="1.0" xmlns="http://www.w3.org/2000/svg"
 width="325.000000pt" height="325.000000pt" viewBox="0 0 325.000000 325.000000"
 preserveAspectRatio="xMidYMid meet">
<metadata>
Created by potrace 1.14, written by Peter Selinger 2001-2017
</metadata>
<g transform="translate(0.000000,325.000000) scale(0.100000,-0.100000)"
fill="#000000" stroke="none">
<path d="M2116 2468 c-46 -62 -82 -115 -80 -117 2 -2 16 -4 31 -5 33 -1 34 -6
9 -105 -88 -357 -347 -638 -699 -756 -41 -14 -91 -27 -109 -29 -18 -3 -33 -5
-33 -6 0 -5 -53 -10 -138 -15 -144 -7 -219 24 -282 115 -31 44 -54 129 -48
175 6 53 35 117 71 157 41 45 121 87 163 84 16 -1 29 1 29 5 0 11 100 -7 115
-22 18 -18 22 -8 27 60 10 132 89 251 207 308 67 33 69 34 153 40 140 10 279
-67 345 -194 28 -53 35 -72 48 -142 2 -13 6 -25 8 -28 5 -5 73 151 82 189 9
35 -27 97 -97 167 -204 207 -532 207 -739 0 -60 -59 -129 -171 -129 -207 0
-15 -13 -22 -60 -28 -67 -10 -93 -18 -158 -52 -55 -28 -135 -113 -165 -173
-114 -235 3 -510 250 -584 81 -24 318 -12 446 23 1 0 9 3 17 6 109 38 141 46
180 45 25 0 38 -3 30 -6 -8 -3 -21 -10 -28 -16 -8 -6 -22 -12 -31 -14 -10 -1
-31 -9 -47 -18 -16 -8 -36 -15 -44 -15 -8 0 -22 -5 -30 -10 -10 -7 104 -10
340 -9 288 0 363 3 395 15 22 8 45 16 51 17 7 2 28 15 47 30 31 23 45 27 106
27 64 0 71 2 71 20 0 17 -7 20 -50 20 l-49 0 28 43 c15 23 35 63 43 88 19 56
21 183 3 225 -11 28 -16 30 -56 29 -66 -3 -89 26 -89 108 0 58 -3 66 -25 81
l-25 16 -30 -59 c-28 -57 -31 -91 -7 -91 20 0 78 -76 91 -122 35 -114 -15
-227 -124 -284 -30 -15 -64 -19 -220 -21 -102 -1 -214 -5 -250 -9 l-65 -6 50
27 c160 87 334 258 438 431 67 112 144 327 159 444 2 21 9 25 36 26 18 1 34 3
36 5 5 5 -101 229 -108 229 -3 0 -43 -51 -90 -112z"/>
<path d="M2530 2236 c0 -8 4 -17 8 -20 13 -8 35 11 28 23 -10 16 -36 14 -36
-3z"/>
<path d="M2409 2231 c-11 -50 -4 -61 37 -66 25 -2 26 -2 28 43 1 24 -3 27 -31
28 -18 1 -34 -2 -34 -5z"/>
<path d="M1633 2192 l-23 -3 0 -270 c0 -170 4 -269 10 -269 11 0 29 14 100 78
l48 42 0 210 c0 151 -3 210 -12 211 -44 3 -105 3 -123 1z"/>
<path d="M2503 2163 c-17 -6 -17 -95 -1 -111 7 -7 30 -12 53 -12 53 0 65 13
65 71 0 40 -3 48 -22 53 -27 7 -78 7 -95 -1z"/>
<path d="M1445 2040 l-40 -5 0 -245 c0 -210 2 -245 15 -245 31 1 140 65 141
83 0 9 1 105 2 212 l0 195 -39 5 c-21 3 -57 3 -79 0z"/>
<path d="M2294 2033 c-19 -19 -20 -166 -1 -185 18 -17 160 -16 182 2 19 16 22
175 3 186 -23 14 -169 12 -184 -3z"/>
<path d="M1201 1880 c-5 -12 -7 -299 -2 -381 1 -15 7 -15 69 -1 37 8 72 19 77
24 10 9 15 367 5 369 -3 0 -36 1 -73 2 -53 2 -71 -2 -76 -13z"/>
<path d="M410 873 l0 -203 45 0 c29 0 45 4 46 13 1 18 1 326 0 363 -1 31 -2
32 -46 30 l-45 -1 0 -202z"/>
<path d="M1294 1068 c-3 -4 -5 -18 -4 -31 1 -12 2 -44 1 -71 -1 -38 -4 -46
-14 -38 -38 32 -114 14 -135 -33 -19 -42 -15 -155 7 -191 24 -40 76 -52 120
-29 35 17 45 19 36 5 -4 -6 11 -10 38 -10 l45 0 -2 202 -1 202 -43 2 c-23 0
-45 -3 -48 -8z m-2 -259 c2 -27 -1 -47 -10 -55 -16 -17 -18 -17 -43 -4 -14 8
-19 21 -19 50 0 81 64 89 72 9z"/>
<path d="M142 1055 c-45 -20 -71 -81 -73 -171 -3 -156 34 -212 144 -219 89 -5
143 33 149 105 l3 35 -47 1 c-41 2 -47 -1 -52 -22 -14 -54 -85 -46 -96 11 -12
58 -3 155 15 175 32 36 85 15 85 -34 0 -17 6 -22 31 -24 56 -4 71 5 65 43 -9
54 -27 83 -61 100 -41 19 -119 19 -163 0z"/>
<path d="M1524 1030 c3 -19 16 -105 30 -190 14 -85 26 -159 26 -163 0 -4 28
-7 62 -5 l63 3 7 40 c4 22 10 58 13 80 3 22 12 65 19 95 l12 55 18 -110 c10
-60 19 -117 21 -125 2 -8 4 -21 4 -27 1 -9 21 -13 64 -13 l63 0 13 88 c8 48
16 101 18 117 3 17 11 64 18 105 7 41 11 77 9 79 -8 9 -94 8 -95 0 -1 -5 -2
-12 -3 -16 -2 -9 -16 -127 -22 -182 -4 -42 -14 -53 -15 -18 -1 15 -2 30 -3 35
-1 4 -6 30 -11 57 -5 28 -9 52 -10 55 0 3 -4 21 -8 41 l-7 36 -55 -2 c-30 0
-56 -3 -59 -5 -6 -7 -39 -201 -38 -224 1 -23 -7 -16 -12 10 -5 28 -23 171 -25
204 -1 11 -14 15 -52 15 l-50 1 5 -36z"/>
<path d="M2300 1020 l0 -50 50 0 50 0 0 50 0 50 -50 0 -50 0 0 -50z"/>
<path d="M617 935 c-21 -7 -40 -15 -41 -17 -29 -38 -36 -59 -36 -110 0 -99 38
-142 125 -142 88 1 124 36 129 127 5 90 -32 142 -106 151 -18 2 -50 -2 -71 -9z
m85 -115 c6 -41 -13 -76 -38 -72 -25 5 -34 20 -34 59 0 67 63 78 72 13z"/>
<path d="M2083 938 c-34 -9 -63 -41 -63 -70 0 -14 8 -18 41 -18 22 0 47 7 55
15 8 8 21 12 30 8 27 -10 9 -28 -37 -35 -63 -11 -93 -37 -97 -82 -6 -74 50
-112 122 -82 21 9 38 11 41 5 4 -5 24 -9 46 -9 l40 0 -4 111 c-5 101 -7 114
-29 135 -26 26 -94 36 -145 22z m75 -170 c-4 -28 -45 -38 -55 -13 -7 19 12 35
40 35 13 0 18 -6 15 -22z"/>
<path d="M2793 935 c-68 -29 -93 -109 -63 -201 16 -47 82 -78 145 -68 51 7 92
37 97 69 2 16 -3 20 -32 22 -19 1 -46 -5 -62 -13 -34 -18 -33 -18 -54 4 -17
16 -14 17 67 22 l84 5 1 30 c2 56 -44 133 -80 136 -6 0 -25 2 -43 3 -18 1 -45
-3 -60 -9z m87 -86 c0 -5 -16 -9 -35 -9 -26 0 -33 4 -29 14 11 27 64 23 64 -5z"/>
<path d="M3125 932 c-20 -10 -30 -11 -33 -3 -2 6 -21 11 -43 11 l-38 0 1 -135
2 -135 47 0 47 0 -2 75 c-1 41 1 80 4 85 4 6 20 14 36 19 26 7 29 12 30 49 1
48 -11 56 -51 34z"/>
<path d="M833 824 c2 -113 3 -117 30 -140 22 -19 35 -23 65 -18 20 3 44 12 53
20 15 13 17 13 22 -1 4 -10 19 -15 45 -15 l40 0 -2 133 -1 132 -46 3 -46 3 -1
-63 c-1 -127 -1 -125 -24 -132 -34 -8 -41 6 -43 96 -1 46 -3 86 -4 91 0 4 -21
7 -46 7 l-45 0 3 -116z"/>
<path d="M2301 805 l-1 -135 47 0 48 0 -1 128 c-1 70 -2 130 -3 135 0 4 -21 7
-45 7 l-43 0 -2 -135z"/>
<path d="M2452 833 c16 -60 31 -120 35 -135 5 -27 7 -28 73 -28 l68 0 32 118
c17 64 34 125 37 135 4 16 -1 18 -44 15 l-48 -3 -21 -90 -21 -90 -10 40 c-6
22 -16 64 -23 93 l-12 52 -48 0 -48 0 30 -107z"/>
</g>
</svg>
