<svg xmlns="http://www.w3.org/2000/svg" xmlns:xlink="http://www.w3.org/1999/xlink" version="1.1" width="256" height="256" viewBox="0 0 256 256" xml:space="preserve">

<defs>
</defs>
<g style="stroke: none; stroke-width: 0; stroke-dasharray: none; stroke-linecap: butt; stroke-linejoin: miter; stroke-miterlimit: 10; fill: none; fill-rule: nonzero; opacity: 1;" transform="translate(1.4065934065934016 1.4065934065934016) scale(2.81 2.81)" >
	<path d="M 78.202 65.885 v -0.151 c 0 -12.159 -9.856 -22.015 -22.015 -22.015 H 33.813 c -12.159 0 -22.015 9.856 -22.015 22.015 v 0.151 c 0 10.296 8.346 18.642 18.642 18.642 h 29.12 C 69.856 84.527 78.202 76.18 78.202 65.885 z" style="stroke: none; stroke-width: 1; stroke-dasharray: none; stroke-linecap: butt; stroke-linejoin: miter; stroke-miterlimit: 10; fill: rgb(174,228,158); fill-rule: nonzero; opacity: 1;" transform=" matrix(1 0 0 1 0 0) " stroke-linecap="round" />
	<path d="M 59.561 85.526 H 30.44 c -10.831 0 -19.642 -8.812 -19.642 -19.642 v -0.151 c 0 -12.69 10.325 -23.015 23.015 -23.015 h 22.374 c 12.69 0 23.016 10.324 23.016 23.015 v 0.151 C 79.202 76.715 70.391 85.526 59.561 85.526 z M 33.813 44.719 c -11.588 0 -21.015 9.427 -21.015 21.015 v 0.151 c 0 9.728 7.914 17.642 17.642 17.642 h 29.121 c 9.728 0 17.642 -7.914 17.642 -17.642 v -0.151 c 0 -11.588 -9.428 -21.015 -21.016 -21.015 H 33.813 z" style="stroke: none; stroke-width: 1; stroke-dasharray: none; stroke-linecap: butt; stroke-linejoin: miter; stroke-miterlimit: 10; fill: rgb(0,0,0); fill-rule: nonzero; opacity: 1;" transform=" matrix(1 0 0 1 0 0) " stroke-linecap="round" />
	<path d="M 45 46.963 L 45 46.963 c -10.795 0 -19.546 -8.751 -19.546 -19.546 v -6.87 C 25.454 9.751 34.205 1 45 1 h 0 c 10.795 0 19.546 8.751 19.546 19.546 v 6.87 C 64.546 38.212 55.795 46.963 45 46.963 z" style="stroke: none; stroke-width: 1; stroke-dasharray: none; stroke-linecap: butt; stroke-linejoin: miter; stroke-miterlimit: 10; fill: rgb(255,206,191); fill-rule: nonzero; opacity: 1;" transform=" matrix(1 0 0 1 0 0) " stroke-linecap="round" />
	<path d="M 45 47.963 c -11.329 0 -20.546 -9.217 -20.546 -20.546 v -6.871 C 24.454 9.217 33.671 0 45 0 c 11.33 0 20.547 9.217 20.547 20.546 v 6.871 C 65.547 38.746 56.33 47.963 45 47.963 z M 45 2 c -10.227 0 -18.546 8.32 -18.546 18.546 v 6.871 c 0 10.226 8.32 18.546 18.546 18.546 s 18.547 -8.32 18.547 -18.546 v -6.871 C 63.547 10.32 55.227 2 45 2 z" style="stroke: none; stroke-width: 1; stroke-dasharray: none; stroke-linecap: butt; stroke-linejoin: miter; stroke-miterlimit: 10; fill: rgb(0,0,0); fill-rule: nonzero; opacity: 1;" transform=" matrix(1 0 0 1 0 0) " stroke-linecap="round" />
	<path d="M 25.497 18.924 c 3.058 1.083 6.526 1.704 10.213 1.704 c 6.318 0 12.003 -1.807 16.038 -4.691 c 3.32 2.373 7.767 3.998 12.755 4.506 C 64.447 9.696 55.722 1 44.962 1 h 0 C 34.714 1 26.324 8.89 25.497 18.924 z" style="stroke: none; stroke-width: 1; stroke-dasharray: none; stroke-linecap: butt; stroke-linejoin: miter; stroke-miterlimit: 10; fill: rgb(225,153,116); fill-rule: nonzero; opacity: 1;" transform=" matrix(1 0 0 1 0 0) " stroke-linecap="round" />
	<path d="M 35.71 21.628 c -3.698 0 -7.247 -0.593 -10.547 -1.762 c -0.428 -0.151 -0.7 -0.572 -0.663 -1.024 C 25.371 8.276 34.358 0 44.961 0 c 11.268 0 20.483 9.168 20.542 20.438 c 0.001 0.284 -0.118 0.555 -0.328 0.746 c -0.209 0.19 -0.481 0.29 -0.773 0.254 c -4.749 -0.483 -9.211 -1.999 -12.653 -4.286 C 47.416 20.043 41.752 21.628 35.71 21.628 z M 26.574 18.233 c 2.874 0.926 5.943 1.396 9.136 1.396 c 5.903 0 11.392 -1.6 15.456 -4.505 c 0.348 -0.249 0.814 -0.249 1.162 0 c 2.971 2.124 6.89 3.592 11.134 4.187 C 62.822 9.667 54.75 2 44.962 2 C 35.652 2 27.722 9.07 26.574 18.233 z" style="stroke: none; stroke-width: 1; stroke-dasharray: none; stroke-linecap: butt; stroke-linejoin: miter; stroke-miterlimit: 10; fill: rgb(0,0,0); fill-rule: nonzero; opacity: 1;" transform=" matrix(1 0 0 1 0 0) " stroke-linecap="round" />
	<path d="M 64.376 83.445 H 25.624 l -4.978 -23.786 c -0.493 -2.358 1.306 -4.573 3.715 -4.573 h 41.278 c 2.409 0 4.208 2.215 3.715 4.573 L 64.376 83.445 z" style="stroke: none; stroke-width: 1; stroke-dasharray: none; stroke-linecap: butt; stroke-linejoin: miter; stroke-miterlimit: 10; fill: rgb(63,110,144); fill-rule: nonzero; opacity: 1;" transform=" matrix(1 0 0 1 0 0) " stroke-linecap="round" />
	<path d="M 64.376 84.445 H 25.625 c -0.473 0 -0.882 -0.332 -0.979 -0.795 l -4.978 -23.787 c -0.297 -1.42 0.057 -2.88 0.972 -4.006 s 2.271 -1.771 3.722 -1.771 h 41.277 c 1.45 0 2.808 0.646 3.722 1.771 c 0.915 1.126 1.269 2.586 0.972 4.006 L 65.354 83.65 C 65.258 84.113 64.85 84.445 64.376 84.445 z M 26.437 82.445 h 37.126 l 4.812 -22.992 c 0.173 -0.827 -0.033 -1.679 -0.566 -2.335 s -1.324 -1.032 -2.17 -1.032 H 24.361 c -0.846 0 -1.637 0.377 -2.17 1.033 s -0.739 1.507 -0.566 2.334 L 26.437 82.445 z" style="stroke: none; stroke-width: 1; stroke-dasharray: none; stroke-linecap: butt; stroke-linejoin: miter; stroke-miterlimit: 10; fill: rgb(0,0,0); fill-rule: nonzero; opacity: 1;" transform=" matrix(1 0 0 1 0 0) " stroke-linecap="round" />
	<ellipse cx="44.995000000000005" cy="68.326" rx="3.365" ry="2.836" style="stroke: none; stroke-width: 1; stroke-dasharray: none; stroke-linecap: butt; stroke-linejoin: miter; stroke-miterlimit: 10; fill: rgb(206,200,198); fill-rule: nonzero; opacity: 1;" transform=" matrix(1 0 0 1 0 0) "/>
	<path d="M 45 72.165 c -2.407 0 -4.365 -1.721 -4.365 -3.836 s 1.958 -3.836 4.365 -3.836 c 2.406 0 4.364 1.721 4.364 3.836 S 47.406 72.165 45 72.165 z M 45 66.493 c -1.304 0 -2.365 0.823 -2.365 1.836 s 1.061 1.836 2.365 1.836 s 2.364 -0.823 2.364 -1.836 S 46.304 66.493 45 66.493 z" style="stroke: none; stroke-width: 1; stroke-dasharray: none; stroke-linecap: butt; stroke-linejoin: miter; stroke-miterlimit: 10; fill: rgb(0,0,0); fill-rule: nonzero; opacity: 1;" transform=" matrix(1 0 0 1 0 0) " stroke-linecap="round" />
	<path d="M 64.545 89 H 25.455 c -1.505 0 -2.725 -1.22 -2.725 -2.725 v -2.83 h 44.54 v 2.83 C 67.27 87.78 66.05 89 64.545 89 z" style="stroke: none; stroke-width: 1; stroke-dasharray: none; stroke-linecap: butt; stroke-linejoin: miter; stroke-miterlimit: 10; fill: rgb(63,110,144); fill-rule: nonzero; opacity: 1;" transform=" matrix(1 0 0 1 0 0) " stroke-linecap="round" />
	<path d="M 64.545 90 h -39.09 c -2.054 0 -3.725 -1.671 -3.725 -3.725 v -2.83 c 0 -0.553 0.448 -1 1 -1 h 44.541 c 0.553 0 1 0.447 1 1 v 2.83 C 68.271 88.329 66.6 90 64.545 90 z M 23.73 84.445 v 1.83 c 0 0.951 0.773 1.725 1.725 1.725 h 39.09 c 0.951 0 1.726 -0.773 1.726 -1.725 v -1.83 H 23.73 z" style="stroke: none; stroke-width: 1; stroke-dasharray: none; stroke-linecap: butt; stroke-linejoin: miter; stroke-miterlimit: 10; fill: rgb(0,0,0); fill-rule: nonzero; opacity: 1;" transform=" matrix(1 0 0 1 0 0) " stroke-linecap="round" />
	<path d="M 38.51 30.036 c -0.552 0 -1 -0.448 -1 -1 v -2.529 c 0 -0.552 0.448 -1 1 -1 s 1 0.448 1 1 v 2.529 C 39.51 29.588 39.063 30.036 38.51 30.036 z" style="stroke: none; stroke-width: 1; stroke-dasharray: none; stroke-linecap: butt; stroke-linejoin: miter; stroke-miterlimit: 10; fill: rgb(0,0,0); fill-rule: nonzero; opacity: 1;" transform=" matrix(1 0 0 1 0 0) " stroke-linecap="round" />
	<path d="M 51.489 30.036 c -0.553 0 -1 -0.448 -1 -1 v -2.529 c 0 -0.552 0.447 -1 1 -1 s 1 0.448 1 1 v 2.529 C 52.489 29.588 52.042 30.036 51.489 30.036 z" style="stroke: none; stroke-width: 1; stroke-dasharray: none; stroke-linecap: butt; stroke-linejoin: miter; stroke-miterlimit: 10; fill: rgb(0,0,0); fill-rule: nonzero; opacity: 1;" transform=" matrix(1 0 0 1 0 0) " stroke-linecap="round" />
	<path d="M 45 40.092 c -2.519 0 -4.813 -1.288 -6.136 -3.444 c -0.289 -0.471 -0.141 -1.086 0.33 -1.375 c 0.471 -0.289 1.087 -0.141 1.375 0.33 c 0.956 1.559 2.613 2.49 4.431 2.49 c 1.817 0 3.474 -0.931 4.431 -2.49 c 0.29 -0.472 0.905 -0.62 1.376 -0.329 c 0.471 0.289 0.618 0.904 0.329 1.375 C 49.813 38.804 47.519 40.092 45 40.092 z" style="stroke: none; stroke-width: 1; stroke-dasharray: none; stroke-linecap: butt; stroke-linejoin: miter; stroke-miterlimit: 10; fill: rgb(0,0,0); fill-rule: nonzero; opacity: 1;" transform=" matrix(1 0 0 1 0 0) " stroke-linecap="round" />
</g>
</svg>